<svg id="Capa_1" data-name="Capa 1" xmlns="http://www.w3.org/2000/svg" xmlns:xlink="http://www.w3.org/1999/xlink" viewBox="0 0 713.84 366.95"><defs><style>.cls-1,.cls-7{fill:#fff;}.cls-2{fill:url(#Degradado_sin_nombre_15);}.cls-3{fill:url(#Degradado_sin_nombre_15-2);}.cls-4{fill:url(#Degradado_sin_nombre_15-3);}.cls-5{fill:url(#Degradado_sin_nombre_15-4);}.cls-6{fill:none;}.cls-6,.cls-7{stroke:#1d1d1b;stroke-miterlimit:10;stroke-width:28px;}.cls-8{font-size:130.54px;fill:#1d1d1b;font-family:BradleyHandITC, Bradley Hand ITC;}</style><linearGradient id="Degradado_sin_nombre_15" x1="77.95" y1="113.39" x2="408.38" y2="113.39" gradientTransform="matrix(0.85, -0.61, 0.64, 0.89, 6.16, 246.48)" gradientUnits="userSpaceOnUse"><stop offset="0" stop-color="#fff"/><stop offset="0.23" stop-color="#fcfcfc" stop-opacity="0.99"/><stop offset="0.36" stop-color="#f4f4f4" stop-opacity="0.97"/><stop offset="0.47" stop-color="#e6e6e6" stop-opacity="0.94"/><stop offset="0.57" stop-color="#d1d1d1" stop-opacity="0.89"/><stop offset="0.66" stop-color="#b7b7b7" stop-opacity="0.83"/><stop offset="0.75" stop-color="#979797" stop-opacity="0.75"/><stop offset="0.83" stop-color="#707070" stop-opacity="0.66"/><stop offset="0.91" stop-color="#434343" stop-opacity="0.56"/><stop offset="0.98" stop-color="#121212" stop-opacity="0.44"/><stop offset="1" stop-opacity="0.4"/></linearGradient><linearGradient id="Degradado_sin_nombre_15-2" x1="94.52" y1="-419.23" x2="424.96" y2="-419.23" gradientTransform="matrix(0.85, -0.61, 0.21, 0.3, 218.15, 541.04)" xlink:href="#Degradado_sin_nombre_15"/><linearGradient id="Degradado_sin_nombre_15-3" x1="383.33" y1="323.24" x2="713.76" y2="323.24" xlink:href="#Degradado_sin_nombre_15"/><linearGradient id="Degradado_sin_nombre_15-4" x1="399.91" y1="206.69" x2="730.34" y2="206.69" gradientTransform="matrix(0.85, -0.61, 0.21, 0.3, 218.15, 541.04)" xlink:href="#Degradado_sin_nombre_15"/></defs><path class="cls-1" d="M438.63,117.11a30,30,0,0,0-3.56-.22H324.27L194.44,210.34l17.89,94.07,237.88-171.2Z" transform="translate(-163.31 -0.66)"/><path class="cls-2" d="M438.63,117.11a30,30,0,0,0-3.56-.22H324.27L194.44,210.34l17.89,94.07,237.88-171.2Z" transform="translate(-163.31 -0.66)"/><path class="cls-1" d="M463.82,156.85,217.75,333.94a30,30,0,0,0,22.84,19.43L459.38,195.9Z" transform="translate(-163.31 -0.66)"/><path class="cls-3" d="M463.82,156.85,217.75,333.94a30,30,0,0,0,22.84,19.43L459.38,195.9Z" transform="translate(-163.31 -0.66)"/><path class="cls-1" d="M831.65,117.11a29.85,29.85,0,0,0-3.56-.22H717.29L587.46,210.34l17.89,94.07,237.89-171.2Z" transform="translate(-163.31 -0.66)"/><path class="cls-4" d="M831.65,117.11a29.85,29.85,0,0,0-3.56-.22H717.29L587.46,210.34l17.89,94.07,237.89-171.2Z" transform="translate(-163.31 -0.66)"/><path class="cls-1" d="M856.84,156.85,610.78,333.94a29.94,29.94,0,0,0,22.83,19.43L852.41,195.9Z" transform="translate(-163.31 -0.66)"/><path class="cls-5" d="M856.84,156.85,610.78,333.94a29.94,29.94,0,0,0,22.83,19.43L852.41,195.9Z" transform="translate(-163.31 -0.66)"/><path class="cls-6" d="M409.41,353.61h-169a29.89,29.89,0,0,1-29.86-28.52,25.93,25.93,0,0,0-.48-3.72L177.85,152c-2.4-12.62,3.31-25.65,14.6-31.78a29.76,29.76,0,0,1,14.25-3.61H429.52a29.89,29.89,0,0,1,29.15,23.26,28,28,0,0,1,.42,9.45l-19.63,173c-.1.9-.15,1.81-.19,2.72A29.89,29.89,0,0,1,409.41,353.61Z" transform="translate(-163.31 -0.66)"/><path class="cls-6" d="M631,353.61h169a29.89,29.89,0,0,0,29.86-28.52,27.43,27.43,0,0,1,.48-3.72L862.6,152c2.4-12.62-3.3-25.65-14.59-31.78a29.79,29.79,0,0,0-14.25-3.61H610.93a29.9,29.9,0,0,0-29.15,23.26,28.29,28.29,0,0,0-.42,9.45l19.64,173c.1.9.14,1.81.18,2.72A29.9,29.9,0,0,0,631,353.61Z" transform="translate(-163.31 -0.66)"/><line class="cls-7" x1="102.08" y1="116" x2="635.78" y2="116"/><text class="cls-8" transform="translate(6.83 98.35)">SSL</text></svg>